<svg width="16" height="16" viewBox="0 0 16 16" fill="none" xmlns="http://www.w3.org/2000/svg">
<rect x="0.5" y="0.5" width="15" height="15" rx="7.5" fill="#FF7152"/>
<path d="M11.6927 12.0189C10.1345 11.278 9.05627 10.9005 7.99029 10.8903C6.92596 10.8801 5.85388 11.2363 4.30925 12.0113C4.102 12.1152 3.85 11.968 3.85 11.73C3.85 11.6309 3.89746 11.5376 3.97543 11.4787C5.52245 10.3101 6.87679 9.80516 8.18429 9.85311C9.48961 9.90097 10.7207 10.4991 12.023 11.4778C12.1025 11.5375 12.15 11.6319 12.15 11.7319C12.15 11.9688 11.9018 12.1184 11.6927 12.0189Z" fill="white" stroke="white" stroke-width="0.3"/>
<rect x="0.5" y="0.5" width="15" height="15" rx="7.5" stroke="#FF7152"/>
</svg>
